<svg id="Livello_1" data-name="Livello 1" xmlns="http://www.w3.org/2000/svg" xmlns:xlink="http://www.w3.org/1999/xlink" viewBox="0 0 604 600"><defs><style>.cls-1{fill:url(#Sfumatura_senza_nome_4);}.cls-2{fill:url(#Sfumatura_senza_nome_4-2);}.cls-3{fill:url(#Sfumatura_senza_nome_4-3);}.cls-4{fill:url(#Sfumatura_senza_nome_4-4);}.cls-5{fill:url(#Sfumatura_senza_nome_4-5);}.cls-6{fill:url(#Sfumatura_senza_nome_4-6);}.cls-7{fill:url(#Sfumatura_senza_nome_4-7);}.cls-8{fill:url(#Sfumatura_senza_nome_4-8);}.cls-9{fill:url(#Sfumatura_senza_nome_4-9);}.cls-10{fill:url(#Sfumatura_senza_nome_4-10);}.cls-11{fill:url(#Sfumatura_senza_nome_4-11);}.cls-12{fill:url(#Sfumatura_senza_nome_4-12);}.cls-13{fill:url(#Sfumatura_senza_nome_4-13);}.cls-14{fill:url(#Sfumatura_senza_nome_4-14);}.cls-15{fill:url(#Sfumatura_senza_nome_4-15);}.cls-16{fill:url(#Sfumatura_senza_nome_4-16);}.cls-17{fill:url(#Sfumatura_senza_nome_4-17);}.cls-18{fill:url(#Sfumatura_senza_nome_4-18);}</style><linearGradient id="Sfumatura_senza_nome_4" x1="151.31" y1="212.79" x2="452.8" y2="212.79" gradientUnits="userSpaceOnUse"><stop offset="0" stop-color="#1a1a1a"/><stop offset="0.04" stop-color="#1e1e1e"/><stop offset="0.08" stop-color="#2b2b2b"/><stop offset="0.1" stop-color="#333"/><stop offset="0.11" stop-color="#2f2f2f"/><stop offset="0.12" stop-color="#222"/><stop offset="0.13" stop-color="#1a1a1a"/><stop offset="0.15" stop-color="#1d1d1d"/><stop offset="0.17" stop-color="#252525"/><stop offset="0.18" stop-color="#333"/><stop offset="0.2" stop-color="#474747"/><stop offset="0.2" stop-color="#4d4d4d"/><stop offset="0.22" stop-color="#494949"/><stop offset="0.24" stop-color="#3c3c3c"/><stop offset="0.25" stop-color="#333"/><stop offset="0.3" stop-color="#333"/><stop offset="0.32" stop-color="#3c3c3c"/><stop offset="0.36" stop-color="#494949"/><stop offset="0.4" stop-color="#4d4d4d"/><stop offset="0.42" stop-color="#494949"/><stop offset="0.44" stop-color="#3c3c3c"/><stop offset="0.45" stop-color="#333"/><stop offset="0.49" stop-color="#373737"/><stop offset="0.53" stop-color="#444"/><stop offset="0.55" stop-color="#4d4d4d"/><stop offset="0.57" stop-color="#555"/><stop offset="0.63" stop-color="#626262"/><stop offset="0.68" stop-color="#666"/><stop offset="0.68" stop-color="#636363"/><stop offset="0.71" stop-color="#3b3b3b"/><stop offset="0.73" stop-color="#232323"/><stop offset="0.75" stop-color="#1a1a1a"/><stop offset="0.78" stop-color="#1d1d1d"/><stop offset="0.81" stop-color="#272727"/><stop offset="0.83" stop-color="#383838"/><stop offset="0.85" stop-color="#4d4d4d"/><stop offset="0.86" stop-color="#404040"/><stop offset="0.88" stop-color="#363636"/><stop offset="0.9" stop-color="#333"/><stop offset="0.94" stop-color="#373737"/><stop offset="0.98" stop-color="#444"/><stop offset="1" stop-color="#4d4d4d"/></linearGradient><linearGradient id="Sfumatura_senza_nome_4-2" x1="151.2" y1="335.79" x2="452.8" y2="335.79" xlink:href="#Sfumatura_senza_nome_4"/><linearGradient id="Sfumatura_senza_nome_4-3" x1="326.46" y1="329.82" x2="366.82" y2="329.82" xlink:href="#Sfumatura_senza_nome_4"/><linearGradient id="Sfumatura_senza_nome_4-4" x1="47.13" y1="504.28" x2="71.84" y2="504.28" xlink:href="#Sfumatura_senza_nome_4"/><linearGradient id="Sfumatura_senza_nome_4-5" x1="73.67" y1="503.87" x2="108.27" y2="503.87" xlink:href="#Sfumatura_senza_nome_4"/><linearGradient id="Sfumatura_senza_nome_4-6" x1="109.12" y1="504.58" x2="141.2" y2="504.58" xlink:href="#Sfumatura_senza_nome_4"/><linearGradient id="Sfumatura_senza_nome_4-7" x1="142.77" y1="504.58" x2="171.17" y2="504.58" xlink:href="#Sfumatura_senza_nome_4"/><linearGradient id="Sfumatura_senza_nome_4-8" x1="175.93" y1="504.58" x2="204.05" y2="504.58" xlink:href="#Sfumatura_senza_nome_4"/><linearGradient id="Sfumatura_senza_nome_4-9" x1="206.68" y1="504.28" x2="231.39" y2="504.28" xlink:href="#Sfumatura_senza_nome_4"/><linearGradient id="Sfumatura_senza_nome_4-10" x1="251.08" y1="512.21" x2="283.01" y2="512.21" xlink:href="#Sfumatura_senza_nome_4"/><linearGradient id="Sfumatura_senza_nome_4-11" x1="302.68" y1="504.58" x2="328.7" y2="504.58" xlink:href="#Sfumatura_senza_nome_4"/><linearGradient id="Sfumatura_senza_nome_4-12" x1="332.01" y1="504.58" x2="360.13" y2="504.58" xlink:href="#Sfumatura_senza_nome_4"/><linearGradient id="Sfumatura_senza_nome_4-13" x1="363.57" y1="504.58" x2="391.69" y2="504.58" xlink:href="#Sfumatura_senza_nome_4"/><linearGradient id="Sfumatura_senza_nome_4-14" x1="393.55" y1="504.58" x2="421.94" y2="504.58" xlink:href="#Sfumatura_senza_nome_4"/><linearGradient id="Sfumatura_senza_nome_4-15" x1="426.42" y1="504.58" x2="437.4" y2="504.58" xlink:href="#Sfumatura_senza_nome_4"/><linearGradient id="Sfumatura_senza_nome_4-16" x1="440.29" y1="504.84" x2="483.81" y2="504.84" xlink:href="#Sfumatura_senza_nome_4"/><linearGradient id="Sfumatura_senza_nome_4-17" x1="488.21" y1="504.28" x2="528.81" y2="504.28" xlink:href="#Sfumatura_senza_nome_4"/><linearGradient id="Sfumatura_senza_nome_4-18" x1="531.75" y1="504.28" x2="556.46" y2="504.28" xlink:href="#Sfumatura_senza_nome_4"/></defs><polygon class="cls-1" points="193.74 76 190.39 76 151.31 76 151.31 234.91 151.31 276.99 151.31 277.34 238.41 277.34 238.41 349.57 280.84 349.57 280.84 277.34 322.1 277.34 322.1 234.91 280.84 234.91 280.84 204.76 367.94 204.76 367.94 161.98 280.84 161.98 276.26 161.98 238.41 161.98 238.41 234.91 193.74 234.91 193.74 118.43 410.37 118.43 410.37 196.6 452.8 196.6 452.8 118.43 452.8 76 193.74 76"/><polygon class="cls-2" points="367.77 277.34 410.37 277.34 410.37 394.24 193.63 394.24 193.63 321.95 151.2 321.95 151.2 413.62 151.31 413.62 151.31 436.67 410.37 436.67 424.88 436.67 452.8 436.67 452.8 277.34 452.8 235.68 452.8 234.91 367.77 234.91 367.77 277.34"/><rect class="cls-3" x="326.46" y="308.61" width="40.36" height="42.43"/><path class="cls-4" d="M67.66,484.55l2,5.14-.34.06s-.51-.57-1.54-1.65a10.7,10.7,0,0,0-8.06-3.38A9.17,9.17,0,0,0,53,487.13,7.88,7.88,0,0,0,50.51,493a6.86,6.86,0,0,0,1.16,4c.77,1.12,2.39,2.17,4.84,3.15q6.33,2.13,8.67,3.21a13.38,13.38,0,0,1,4.5,3.64,9.86,9.86,0,0,1,2.16,6.58,12.73,12.73,0,0,1-.39,3.19,10.74,10.74,0,0,1-1.25,2.93,12.81,12.81,0,0,1-2.08,2.57,9.83,9.83,0,0,1-2.47,1.76,13.51,13.51,0,0,1-4,.9c-1.81.21-3,.31-3.57.31h-11V513.2h.42c0,4,1,6.73,2.79,8.29s4.67,2.35,8.52,2.35q5.25,0,8-2.49a7.79,7.79,0,0,0,2.72-6,6.56,6.56,0,0,0-1-3.62A8.72,8.72,0,0,0,66,509.14a31,31,0,0,0-6.44-2.76,34,34,0,0,1-6.63-2.9,9.39,9.39,0,0,1-3.2-3.74,11,11,0,0,1-1.29-5.09,10.8,10.8,0,0,1,3.28-8,11.77,11.77,0,0,1,8.61-3.23,23.62,23.62,0,0,1,4.47.47,20.24,20.24,0,0,1,2.68.62A.64.64,0,0,0,67.66,484.55Z"/><path class="cls-5" d="M108.27,482.6l-2,5h-.42a4.89,4.89,0,0,0,.11-1.2.79.79,0,0,0-.46-.83,4.28,4.28,0,0,0-1.46-.18H93.36v35.18a8.6,8.6,0,0,0,.34,3,1.71,1.71,0,0,0,1,1,6.43,6.43,0,0,0,1.94.21v.42H85.45v-.42c1.4-.09,2.27-.36,2.63-.81a5,5,0,0,0,.53-2.79V485.36H78.33a7,7,0,0,0-2,.18c-.32.12-.48.43-.48.91a4.92,4.92,0,0,0,.22,1.12h-.41l-2-5h.42a2.4,2.4,0,0,0,1,1.21,6.52,6.52,0,0,0,2.1.21h27.29a9.09,9.09,0,0,0,2.33-.21,1.7,1.7,0,0,0,1-1.21Z"/><path class="cls-6" d="M135,484h6.17v.42a4.15,4.15,0,0,0-1.93.56,6.81,6.81,0,0,0-1.73,1.95l-10,15.25V521a5.12,5.12,0,0,0,.59,3,3.35,3.35,0,0,0,2.56.71v.42h-11v-.42q3.17.19,3.16-2.48l-.06-1.18V503.69L112.66,487q-1.59-2.65-3.54-2.57V484h9.71v.42c-.9,0-1.36.34-1.36,1a3.78,3.78,0,0,0,.7,1.64l8.3,13.69L135.53,487a3.06,3.06,0,0,0,.56-.83,2.28,2.28,0,0,0,.3-.82c0-.61-.4-.92-1.2-.92H135Z"/><path class="cls-7" d="M142.83,525.15v-.42a3.14,3.14,0,0,0,2.5-.73,4.09,4.09,0,0,0,.57-2.48V487.87a5.51,5.51,0,0,0-.45-2.58c-.29-.53-1.19-.81-2.68-.85V484h11v.42a4.28,4.28,0,0,0-2.15.39,1.9,1.9,0,0,0-.81.92,9,9,0,0,0-.19,2.4V517c0,2.48.59,4.22,1.78,5.24s3.23,1.52,6.11,1.52h5q3.62,0,5.31-1.79t1.88-6.73h.42v9.89Z"/><path class="cls-8" d="M175.93,484.5V484h25.85v5.67h-.41A10.68,10.68,0,0,0,200,486c-.39-.38-1.32-.56-2.81-.56H183.58v18.45h12.59a4.92,4.92,0,0,0,2.38-.35,1.24,1.24,0,0,0,.53-1h.41v3.89h-.41a1.44,1.44,0,0,0-.66-1.09,4.38,4.38,0,0,0-1.91-.28H183.58v12.7a11.78,11.78,0,0,0,.53,4.15,2.54,2.54,0,0,0,1.69,1.59,14.26,14.26,0,0,0,3.5.32h7.24a24.09,24.09,0,0,0,4.42-.24,3.23,3.23,0,0,0,1.64-.94,6.27,6.27,0,0,0,1-3.09h.42v5.64H175.93v-.42a4.78,4.78,0,0,0,2.16-.54c.5-.31.74-1.11.74-2.39V488.6a9,9,0,0,0-.39-3.18C178.18,484.8,177.34,484.5,175.93,484.5Z"/><path class="cls-9" d="M227.21,484.55l1.95,5.14-.33.06s-.52-.57-1.55-1.65a10.7,10.7,0,0,0-8.06-3.38,9.17,9.17,0,0,0-6.69,2.41,7.88,7.88,0,0,0-2.47,5.83,6.86,6.86,0,0,0,1.16,4c.77,1.12,2.39,2.17,4.84,3.15q6.33,2.13,8.67,3.21a13.38,13.38,0,0,1,4.5,3.64,9.86,9.86,0,0,1,2.16,6.58,12.73,12.73,0,0,1-.39,3.19,10.74,10.74,0,0,1-1.25,2.93,12.81,12.81,0,0,1-2.08,2.57,9.83,9.83,0,0,1-2.47,1.76,13.51,13.51,0,0,1-4,.9c-1.81.21-3,.31-3.57.31h-11V513.2h.42c0,4,1,6.73,2.79,8.29s4.67,2.35,8.52,2.35q5.25,0,8-2.49a7.79,7.79,0,0,0,2.72-6,6.56,6.56,0,0,0-.95-3.62,8.72,8.72,0,0,0-2.65-2.62,31,31,0,0,0-6.44-2.76,34,34,0,0,1-6.63-2.9,9.39,9.39,0,0,1-3.2-3.74,11,11,0,0,1-1.29-5.09,10.8,10.8,0,0,1,3.28-8,11.77,11.77,0,0,1,8.61-3.23,23.62,23.62,0,0,1,4.47.47,20.24,20.24,0,0,1,2.68.62A.64.64,0,0,0,227.21,484.55Z"/><path class="cls-10" d="M267.5,500.56l1.11,2.95h-.35a11.93,11.93,0,0,0-3.35-2.84,7.52,7.52,0,0,0-3.72-1.08,3.12,3.12,0,0,0-2.48.94,3.08,3.08,0,0,0-.82,2.08c0,1.42,1.15,3.26,3.47,5.54l11.46,11.35A10.63,10.63,0,0,0,274.6,515a25.11,25.11,0,0,0,.5-4.18c0-.73-.17-1.19-.5-1.38a3.76,3.76,0,0,0-1.63-.35l-.25,0-.58,0v-.29l5.51,0v.33a1.06,1.06,0,0,0-1.19.48,9.72,9.72,0,0,0-.61,2.58c-.49,3.52-1.33,6.13-2.52,7.81l2.66,2.64a5.59,5.59,0,0,0,3.89,1.89,5.74,5.74,0,0,0,2.95-.91l.18.26a8.65,8.65,0,0,1-5.11,1.67,7.3,7.3,0,0,1-5.29-2.38s-.07-.13-.2-.24l-.86-.83a13.25,13.25,0,0,1-9.45,3.45c-3.71,0-6.48-.95-8.29-2.84a8.9,8.9,0,0,1-2.73-6.28,7.76,7.76,0,0,1,1.84-5.15,8.31,8.31,0,0,1,5-2.79,15.47,15.47,0,0,1-1.38-2.37,5.48,5.48,0,0,1-.48-2.28,5,5,0,0,1,1.38-3.44,5.55,5.55,0,0,1,4.34-1.53,9,9,0,0,1,3,.46A15.75,15.75,0,0,1,267.5,500.56Zm3.56,21.06-9.87-9.56c-.07-.06-.48-.49-1.24-1.3a19.26,19.26,0,0,1-1.48-1.69q-5.3,1.23-5.29,5.29,0,3.63,3.42,6.75a11.25,11.25,0,0,0,7.77,3.11,9.33,9.33,0,0,0,3.57-.55,13.42,13.42,0,0,0,2.86-1.85l.16-.13C271,521.66,271.05,521.64,271.06,521.62Z"/><path class="cls-11" d="M302.68,484.44V484h26v4.83h-.42v-.19a.29.29,0,0,1,0-.17c-.37-1.42-.9-2.28-1.57-2.6a7.66,7.66,0,0,0-3.07-.47H310.33v18.12h12.35a6.47,6.47,0,0,0,2.17-.25,1.23,1.23,0,0,0,.67-1.12h.42v3.94h-.42c0-.95-.61-1.43-1.84-1.43H310.33v16.4c0,1.54.24,2.53.71,3a3.54,3.54,0,0,0,2.45.67v.42H302.68v-.42c1.27,0,2.07-.24,2.4-.73a3.48,3.48,0,0,0,.5-2V488.15a5.23,5.23,0,0,0-.58-2.89A2.7,2.7,0,0,0,302.68,484.44Z"/><path class="cls-12" d="M332,484.5V484h25.86v5.67h-.42A10.68,10.68,0,0,0,356,486c-.39-.38-1.32-.56-2.81-.56H339.66v18.45h12.59a4.92,4.92,0,0,0,2.38-.35,1.24,1.24,0,0,0,.53-1h.42v3.89h-.42a1.41,1.41,0,0,0-.66-1.09,4.38,4.38,0,0,0-1.91-.28H339.66v12.7a11.78,11.78,0,0,0,.53,4.15,2.54,2.54,0,0,0,1.69,1.59,14.31,14.31,0,0,0,3.5.32h7.25a24.24,24.24,0,0,0,4.42-.24,3.24,3.24,0,0,0,1.63-.94,6.27,6.27,0,0,0,1-3.09h.42v5.64H332v-.42a4.78,4.78,0,0,0,2.16-.54c.5-.31.74-1.11.74-2.39V488.6a9,9,0,0,0-.39-3.18C334.26,484.8,333.43,484.5,332,484.5Z"/><path class="cls-13" d="M363.57,484.5V484h25.86v5.67H389A10.68,10.68,0,0,0,387.6,486c-.38-.38-1.32-.56-2.81-.56H371.23v18.45h12.59a4.87,4.87,0,0,0,2.37-.35,1.21,1.21,0,0,0,.53-1h.42v3.89h-.42a1.39,1.39,0,0,0-.66-1.09,4.38,4.38,0,0,0-1.91-.28H371.23v12.7a11.83,11.83,0,0,0,.52,4.15,2.56,2.56,0,0,0,1.69,1.59,14.31,14.31,0,0,0,3.5.32h7.25a24.09,24.09,0,0,0,4.42-.24,3.24,3.24,0,0,0,1.63-.94,6.17,6.17,0,0,0,1-3.09h.42v5.64H363.57v-.42a4.83,4.83,0,0,0,2.17-.54c.49-.31.74-1.11.74-2.39V488.6a9,9,0,0,0-.39-3.18C365.83,484.8,365,484.5,363.57,484.5Z"/><path class="cls-14" d="M393.6,525.15v-.42c1.29,0,2.12-.24,2.5-.73a4.09,4.09,0,0,0,.57-2.48V487.87a5.53,5.53,0,0,0-.44-2.58c-.3-.53-1.19-.81-2.68-.85V484h11v.42a4.25,4.25,0,0,0-2.15.39,1.9,1.9,0,0,0-.81.92,8.89,8.89,0,0,0-.2,2.4V517c0,2.48.6,4.22,1.79,5.24s3.22,1.52,6.1,1.52h5q3.63,0,5.31-1.79c1.13-1.19,1.75-3.43,1.88-6.73h.42v9.89Z"/><path class="cls-15" d="M437.4,484v.42a4.25,4.25,0,0,0-1.8.25c-.67.23-1.06.55-1.18,1a15.07,15.07,0,0,0-.18,3v31.56a13,13,0,0,0,.21,3.13,1.85,1.85,0,0,0,.81,1,4.32,4.32,0,0,0,2.14.38v.42h-11v-.42c1.38,0,2.24-.27,2.57-.8a8,8,0,0,0,.5-3.61V489.07a8.51,8.51,0,0,0-.55-3.83c-.38-.61-1.21-.87-2.52-.8V484Z"/><path class="cls-16" d="M475.86,484h7.95v.42a3.63,3.63,0,0,0-2.51.77,4.5,4.5,0,0,0-.7,3v37.44l-32.8-34.93v30.41a7.6,7.6,0,0,0,.22,2.15,1.65,1.65,0,0,0,.64,1,7.76,7.76,0,0,0,2.1.5v.42h-7.91v-.42q2.13,0,2.64-.75c.35-.51.52-1.71.52-3.6V492.56a14.9,14.9,0,0,0-1-6c-.68-1.55-2.25-2.26-4.7-2.15V484H448l30.82,32.82v-29c0-1.57-.28-2.52-.83-2.86a4,4,0,0,0-2.15-.52Z"/><path class="cls-17" d="M528.81,524.73v.42H512.22a30.68,30.68,0,0,1-8.36-1A23.49,23.49,0,0,1,490.51,513a18.43,18.43,0,0,1-2.3-8.79,19.06,19.06,0,0,1,2.89-9.8,22.13,22.13,0,0,1,8.22-8,24,24,0,0,1,12.09-3,34.76,34.76,0,0,1,12.82,2.68l1.7,4.74h-.41a16.36,16.36,0,0,0-5.87-4.53,18.85,18.85,0,0,0-8.3-1.8,16.29,16.29,0,0,0-13,6,22.19,22.19,0,0,0-5.08,14.87,24,24,0,0,0,.83,6.58,16.12,16.12,0,0,0,3.15,5.69,15.53,15.53,0,0,0,4.94,4.14,20.28,20.28,0,0,0,5.9,1.84,29.8,29.8,0,0,0,5.2.46l2.2-.06c2.5-.09,4-.32,4.68-.69s.93-1.33.93-2.85v-6.23a3.1,3.1,0,0,0-.75-2.44,3,3,0,0,0-2.15-.55v-.41h10.64v.41a3.14,3.14,0,0,0-2.39.7,4.28,4.28,0,0,0-.6,2.68v6.46a5.59,5.59,0,0,0,.52,2.8,2,2,0,0,0,1.88.85Z"/><path class="cls-18" d="M552.27,484.55l2,5.14-.34.06s-.51-.57-1.55-1.65a10.87,10.87,0,0,0-3.54-2.5,11,11,0,0,0-4.51-.88,9.17,9.17,0,0,0-6.69,2.41,7.88,7.88,0,0,0-2.47,5.83,6.86,6.86,0,0,0,1.16,4c.77,1.12,2.39,2.17,4.84,3.15q6.33,2.13,8.67,3.21a13.38,13.38,0,0,1,4.5,3.64,9.86,9.86,0,0,1,2.16,6.58,12.73,12.73,0,0,1-.39,3.19,10.74,10.74,0,0,1-1.25,2.93,13.16,13.16,0,0,1-2.08,2.57,9.7,9.7,0,0,1-2.48,1.76,13.43,13.43,0,0,1-4,.9c-1.81.21-3,.31-3.57.31h-11V513.2h.42c0,4,1,6.73,2.79,8.29s4.67,2.35,8.52,2.35q5.25,0,8-2.49a7.79,7.79,0,0,0,2.72-6,6.56,6.56,0,0,0-.95-3.62,8.72,8.72,0,0,0-2.65-2.62,31,31,0,0,0-6.44-2.76,34,34,0,0,1-6.63-2.9,9.49,9.49,0,0,1-3.21-3.74,11.07,11.07,0,0,1-1.28-5.09,10.8,10.8,0,0,1,3.28-8,11.77,11.77,0,0,1,8.61-3.23,23.62,23.62,0,0,1,4.47.47,20.24,20.24,0,0,1,2.68.62A.63.63,0,0,0,552.27,484.55Z"/></svg>